<svg xmlns="http://www.w3.org/2000/svg" version="1.1" xmlns:xlink="http://www.w3.org/1999/xlink" xmlns:svgjs="http://svgjs.dev/svgjs" width="2000" height="2250" viewBox="0 0 2000 2250"><g transform="matrix(1,0,0,1,3.410605131648481e-13,0)"><svg viewBox="0 0 320 360" data-background-color="#ffffff" preserveAspectRatio="xMidYMid meet" height="2250" width="2000" xmlns="http://www.w3.org/2000/svg" xmlns:xlink="http://www.w3.org/1999/xlink"><g id="tight-bounds" transform="matrix(1,0,0,1,0,0)"><svg viewBox="0 0 320 360" height="360" width="320"><g><svg></svg></g><g><svg viewBox="0 0 320 360" height="360" width="320"><g><path xmlns="http://www.w3.org/2000/svg" d="M20.961 227.22l3.726 4.658-1.863-6.056c-0.466-2.795-3.726 0.466-1.863 1.398M25.153 224.425c1.397 2.329 2.795 4.658 2.795 6.987 0 3.261 2.795 4.658 5.123 5.589-3.261-3.726-5.124-13.974-7.918-12.576M204.017 26.929c7.918 0 15.371-0.932 23.756 0.931 20.495 5.124 37.729 15.371 49.374 29.811l32.606 52.169c1.397 13.042 4.192 27.482 3.726 43.319 3.261 0 2.795-4.658 6.521-5.59-3.726 9.316-5.59 20.961-6.521 34.469-2.329-7.453 0-18.632 0.466-24.687-3.261 5.124-5.124 1.397-5.124-0.932 0.466-3.726-1.397-3.261-2.795-4.658-5.124-4.658-8.384-9.782-12.11-17.7 2.329-6.055 2.795-14.905-4.658-19.563-2.329-1.397-5.124-3.726-6.521-7.453-1.863-5.124-5.124-11.179-4.193-19.097 0.466-2.329-6.987 5.124-11.179 1.863-18.166-12.576-36.332-27.016-58.224-39.127-11.645 0-20.029-4.192-24.221-9.316-3.726-4.658-0.932-10.713 4.658-11.179 3.261 0 6.987-0.932 9.782 0.932 0.466-1.863 2.329-4.192 4.657-4.192M157.904 16.215l0.932 0.466c4.658 0.932 6.987 7.453 12.11 5.124 0 3.261 0.466 6.521-0.466 8.85-1.397 3.726-5.59 3.726-8.85 3.726-31.208-1.863-49.374 11.179-68.471 22.358-5.124 3.261-10.713 5.59-14.906 9.782-20.029 18.632-41.921 35.866-47.045 70.335l-4.192 38.195c-0.466 4.192-5.124 8.384-4.192 13.508l3.26 22.824c-3.261-3.261-5.124 0.932-4.192 2.795 0.466 1.397 2.329 6.055 5.124 1.863 3.726 6.987 7.453 20.495 12.576 26.55 15.837 18.632 36.332 35.4 53.101 52.169 4.192-0.932 7.453-0.932 8.384-3.727 1.397 2.795-1.397 5.59-3.726 6.056 7.453 4.658 15.837 8.85 27.016 9.781 14.44 0.932 27.948 3.261 40.524 6.522 6.521-1.863 13.042-2.795 20.029-3.261 2.329 0 3.726-3.726 6.521-4.658l0.466-4.658c2.795 4.192 2.329-1.397 0.466-4.192 3.261 2.795 4.192 5.124 5.589 6.987 0-1.397 3.726-6.521 3.727-0.466l0.931-6.055c1.397-0.932 1.863 5.124 3.261 0.931 1.397-4.192 4.192-0.932 6.987-2.329-0.932 1.863-0.466 5.59 2.794 3.261l3.727-3.261c2.329 5.59 6.055 3.261 7.918 2.329 20.495-13.042 40.99-28.413 60.553-43.784l-0.466 6.055 2.329-7.453c2.329 2.329 4.192 0.466 5.124-0.931 2.795-4.658 6.521-9.316 12.577-13.508-7.453 20.029-16.303 35.866-27.482 48.908l-4.658 5.59c0 3.261-0.932 7.453-4.658 7.918-1.863 0.466-5.59-0.932-8.384 1.863-1.397 1.863 3.261 5.59-0.466 2.795-3.261-2.329-6.521 0-10.248 0.932-2.795 0.932 1.863 3.726 2.795 5.589 0.932 1.863 1.863 3.726 1.398 6.056l-5.124-5.59c-6.055 3.261-9.782 9.316-14.906 13.974-2.329 1.863-1.397 5.124-1.397 7.918-3.261 0-6.987-0.932-8.85 0.932-1.397 1.863-0.932 4.658-0.932 7.453-4.658-0.466-5.124-7.453-9.315-6.056-4.192 0.932-8.85 1.397-12.577 3.727 2.795 5.59-4.658 2.329-3.726 3.26-6.987-4.192-13.042-7.453-20.495-4.658-15.837-5.124-35.4-2.795-49.84-0.931 0-2.329 0.466-4.658-0.466-5.124-0.932 2.329-3.726 1.397-3.26 1.397-8.85-6.055-17.7-9.782-27.016-14.905-8.384 0.932-16.303-3.261-18.632-5.59-6.521-6.055-13.974-2.795-20.029-4.192-13.042-3.261-17.7-16.769-19.098-26.084-0.932-4.658-4.658-6.521-6.055-6.056-6.055-19.563-15.371-37.263-22.824-55.429-1.863-4.658-1.397-9.316-1.397-14.44 2.329 0.932 4.658 0.466 4.192-2.794-2.329-15.371-7.918-27.016-13.974-38.195 3.261-15.837 3.726-34.469 11.179-48.443 6.521-12.576 18.632-19.098 27.016-29.811 2.795-3.726 2.795-8.85 5.59-12.11 9.316-9.316 18.632-19.098 28.879-27.482 4.658-3.726 10.247 0 17.234-1.397 2.329-8.384 11.645-15.837 20.495-13.508 3.726 0.932 11.179-8.85 13.508-9.782 3.726-1.397 1.863 3.726 1.863 6.987 8.85-6.987 20.961-10.713 32.14-14.906" fill="#1e55b3" fill-rule="nonzero" stroke="none" stroke-width="1" stroke-linecap="butt" stroke-linejoin="miter" stroke-miterlimit="10" stroke-dasharray="" stroke-dashoffset="0" font-family="none" font-weight="none" font-size="none" text-anchor="none" style="mix-blend-mode: normal" data-fill-palette-color="tertiary"></path></g><g transform="matrix(1,0,0,1,64,110.6339418588764)"><svg viewBox="0 0 192 138.7321162822472" height="138.7321162822472" width="192"><g><svg viewBox="0 0 192 138.7321162822472" height="138.7321162822472" width="192"><g><svg viewBox="0 0 192 138.7321162822472" height="138.7321162822472" width="192"><g transform="matrix(1,0,0,1,0,82.44510324853934)"><svg viewBox="0 0 192 56.287013033707865" height="56.287013033707865" width="192"><g id="textblocktransform"><svg viewBox="0 0 192 56.287013033707865" height="56.287013033707865" width="192" id="textblock"><g><svg viewBox="0 0 192 31.91011235955056" height="31.91011235955056" width="192"><g transform="matrix(1,0,0,1,0,0)"><svg width="192" viewBox="0.45000001788139343 -35 213.5800018310547 35.5" height="31.91011235955056" data-palette-color="#1e55b3"><path d="M7.1 0L7.1-14.9 0.45-35 6.3-35 10.05-22.15 10.15-22.15 13.9-35 19.25-35 12.6-14.9 12.6 0 7.1 0ZM29.75 0.5Q25.75 0.5 23.65-1.78 21.55-4.05 21.55-8.3L21.55-8.3 21.55-35 27.05-35 27.05-7.9Q27.05-6.1 27.77-5.3 28.5-4.5 29.85-4.5L29.85-4.5Q31.2-4.5 31.92-5.3 32.65-6.1 32.65-7.9L32.65-7.9 32.65-35 37.95-35 37.95-8.3Q37.95-4.05 35.85-1.78 33.75 0.5 29.75 0.5L29.75 0.5ZM41.84 0L41.84-35 49.7-35 53.2-9.95 53.3-9.95 56.8-35 64.65-35 64.65 0 59.45 0 59.45-26.5 59.34-26.5 55.34 0 50.75 0 46.75-26.5 46.65-26.5 46.65 0 41.84 0ZM81.79 0L81.79-14.9 75.14-35 80.99-35 84.74-22.15 84.84-22.15 88.59-35 93.94-35 87.29-14.9 87.29 0 81.79 0ZM104.44 0.5Q100.44 0.5 98.34-1.78 96.24-4.05 96.24-8.3L96.24-8.3 96.24-35 101.74-35 101.74-7.9Q101.74-6.1 102.46-5.3 103.19-4.5 104.54-4.5L104.54-4.5Q105.89-4.5 106.61-5.3 107.34-6.1 107.34-7.9L107.34-7.9 107.34-35 112.64-35 112.64-8.3Q112.64-4.05 110.54-1.78 108.44 0.5 104.44 0.5L104.44 0.5ZM116.54 0L116.54-35 124.39-35 127.89-9.95 127.99-9.95 131.49-35 139.34-35 139.34 0 134.14 0 134.14-26.5 134.04-26.5 130.04 0 125.44 0 121.44-26.5 121.34-26.5 121.34 0 116.54 0ZM156.48 0L156.48-14.9 149.83-35 155.68-35 159.43-22.15 159.53-22.15 163.28-35 168.63-35 161.98-14.9 161.98 0 156.48 0ZM179.13 0.5Q175.13 0.5 173.03-1.78 170.93-4.05 170.93-8.3L170.93-8.3 170.93-35 176.43-35 176.43-7.9Q176.43-6.1 177.15-5.3 177.88-4.5 179.23-4.5L179.23-4.5Q180.58-4.5 181.3-5.3 182.03-6.1 182.03-7.9L182.03-7.9 182.03-35 187.33-35 187.33-8.3Q187.33-4.05 185.23-1.78 183.13 0.5 179.13 0.5L179.13 0.5ZM191.23 0L191.23-35 199.08-35 202.58-9.95 202.68-9.95 206.18-35 214.03-35 214.03 0 208.83 0 208.83-26.5 208.73-26.5 204.73 0 200.13 0 196.13-26.5 196.03-26.5 196.03 0 191.23 0Z" opacity="1" transform="matrix(1,0,0,1,0,0)" fill="#1e55b3" class="undefined-text-0" data-fill-palette-color="primary" id="text-0"></path></svg></g></svg></g><g transform="matrix(1,0,0,1,0,36.56656359550561)"><svg viewBox="0 0 192 19.720449438202245" height="19.720449438202245" width="192"><g transform="matrix(1,0,0,1,0,0)"><svg width="192" viewBox="1.5 -39 487.2900085449219 50.04999923706055" height="19.720449438202245" data-palette-color="#ff585f"><path d="M26.25-35L24.6-27.75 22.65-27.75 21.8-31 9.6-31.4 10-20.05 22.15-19.65 22.15-17.65 9.6-16 10.8-2.55 10.8-2.55 14.9-2.2 15.7 0.25 3.5 0.25 3.15-1.35 5.9-1.75 5.15-31.8 1.85-33.05 1.5-34.65 9.6-34.65 9.6-34.65 26.25-35ZM47.1-0.75L47.3 0.65 37.3 0.75 37.05-0.7 39.7-1.75 39.9-22.9 36.25-24.15 35.9-25.4 46.3-26 46.8-25 43.75-23.3 43.55-1.8 47.1-0.75ZM44.25-30.8L40.45-29.2 38.75-32.6 40.8-34.55 44-34.15 44.25-30.8ZM85.24-6.6L87.89-3.55 79.54 0.65 76.54-0.9 76.54-16.1 74.99-20.65 71.19-21.05 65.44-12.7 65.44-2.45 68.14-1.65 67.74 0.25 58.64-0.15 58.24-1.25 60.89-2.45 60.89-20.65 57.54-22.55 60.14-26 64.74-21.05 65.44-16.45 70.44-24.45 76.89-24.1 80.69-17.25 79.89-3.9 80.69-3.2 85.24-6.6ZM111.94-9.1L112.19-19.95 106.34-22.15 100.99-20.4 99.69-10.6 104.14-3.25 106.99-3.9 111.94-9.1ZM121.79-0.9L113.79-0.25 111.74-4.8 108.44-0.35 100.84-0.8 95.79-10.9 98.79-22.6 106.04-25.5 112.74-22.75 112.99-35.25 116.14-39 118.94-36.7 116.84-34.95 115.99-3.1 120.79-4 121.79-0.9ZM168.33-3L171.68-1.95 171.93-0.1 161.43-0.3 161.33-1.5 164.88-2.9 164.73-15.35 154.58-32.65 151.88-33.7 152.03-35 162.53-35.2 162.18-33.35 160.43-32.75 166.93-19.45 175.48-33.1 172.28-33.95 172.38-35.45 183.13-35.5 183.38-34.05 179.28-32.75 168.03-15.7 168.33-3ZM200.88-22.55L195.78-22.95 191.38-17.25 192.33-7.4 197.88-2.15 201.63-2.2 206.33-11.4 204.23-20.05 200.88-22.55ZM194.18-26.3L202.58-26.3 207.88-21.4 209.88-9.95 202.83 1.1 195.83 1.4 188.48-7.45 187.93-18.85 194.18-26.3ZM247.22-6.5L249.42-2.7 242.07 0.8 239.27 0.05 238.37-2.85 237.72-6.3 228.87 0.75 223.67-1.05 222.17-6.95 222.02-22.35 219.92-23.25 220.07-24.45 229.02-24.65 228.77-22.85 226.17-21.8 226.17-7.7 228.02-3.25 231.27-5.05 237.32-8.4 238.12-22.3 235.92-23.3 236.07-24.65 243.97-24.65 244.22-22.95 241.62-21.95 241.47-3.4 242.22-2.15 247.22-6.5ZM271.67-24.8L275.22-20.6 272.17-18 269.52-21.85 265.47-20.5 264.27-17.85 264.47-2.85 267.42-1.9 267.12-0.15 258.27-0.15 258.12-1.5 260.47-2.45 260.42-22.45 257.97-23.85 260.12-26.6 263.77-24.25 264.07-22.55 266.62-23.55 271.67-24.8ZM327.36-19.15L331.81-23.9 330.01-30.35 322.66-31.65 317.51-30.85 318.36-19.75 327.36-19.15ZM338.81-9.45L341.96-6.15 335.76-0.6 331.86-1.25 329.21-13 324.51-16.45 318.01-15.5 318.16-3.1 321.31-2.05 321.71-0.15 310.96-0.3 310.86-1.65 313.81-2.8 313.21-29.25 311.41-31.2 307.81-31.6 307.96-34.3 312.06-34.4 314.16-33.55 315.41-34.65 329.01-34.45 335.31-28.65 334.41-20.3 330.06-17 333.76-13.45 334.11-4.45 335.21-4.05 338.81-9.45ZM355.76-13.2L355.81-13.4 367.51-15.25 366.11-21.8 362.76-23.05 356.21-20.85 355.76-13.2ZM358.91-25.7L365.96-25.15 369.96-21.65 371.41-13.05 355.76-10.55 358.46-2.6 364.36-2.75 371.36-4.85 371.76-0.9 357.66 1.1 351.51-8 352.21-20.85 358.91-25.7ZM400.6-4.1L401.8-0.2 394.05 0.2 384.3-3 383.9-15.35 388.15-23.9 395.2-26.3 400.6-23.2 397.9-16.15 396.35-16.95 397.9-21.6 395.95-23.2 395.95-23.2 390.1-20.45 387.4-14.25 388.15-5.3 394.05-3 400.6-4.1ZM422.55-0.75L422.75 0.65 412.75 0.75 412.5-0.7 415.15-1.75 415.35-22.9 411.7-24.15 411.35-25.4 421.75-26 422.25-25 419.2-23.3 419-1.8 422.55-0.75ZM419.7-30.8L415.9-29.2 414.2-32.6 416.25-34.55 419.45-34.15 419.7-30.8ZM451.55-7.45L452.95-12.5 450.2-20.55 444.6-21.3 439.4-19.45 439.7-6.5 444.9-4.5 451.55-7.45ZM452.9-24.5L457.5-11.6 452.3-2.55 444.25-1 439.2-3.3 439.45 7.95 442.8 9.1 442.6 11.05 432.5 11 432.3 9.5 435.4 8.25 435.1-23 433.4-23.6 435.1-26.9 439.45-24.65 439.1-22.65 444.35-24.6 452.9-24.5ZM472.79-13.2L472.84-13.4 484.54-15.25 483.14-21.8 479.79-23.05 473.24-20.85 472.79-13.2ZM475.94-25.7L482.99-25.15 486.99-21.65 488.44-13.05 472.79-10.55 475.49-2.6 481.39-2.75 488.39-4.85 488.79-0.9 474.69 1.1 468.54-8 469.24-20.85 475.94-25.7Z" opacity="1" transform="matrix(1,0,0,1,0,0)" fill="#ff585f" class="undefined-text-1" data-fill-palette-color="secondary" id="text-1"></path></svg></g></svg></g></svg></g></svg></g><g transform="matrix(1,0,0,1,41.78701454740073,0)"><svg viewBox="0 0 108.42597090519854 77.78865201258428" height="77.78865201258428" width="108.42597090519854"><g><svg xmlns="http://www.w3.org/2000/svg" xmlns:xlink="http://www.w3.org/1999/xlink" version="1.1" x="0" y="0" viewBox="81.30000305175781 209.5 834.5 598.7000122070312" style="enable-background:new 0 0 1000 1000;" xml:space="preserve" height="77.78865201258428" width="108.42597090519854" class="icon-icon-0" data-fill-palette-color="accent" id="icon-0"><g fill="#ff585f" data-fill-palette-color="accent"><g fill="#ff585f" data-fill-palette-color="accent"><g fill="#ff585f" data-fill-palette-color="accent"><g fill="#ff585f" data-fill-palette-color="accent"><path d="M246.8 699.1L246.8 699.1c0-2-0.1-4.9 0-8.6 0.1-7.4 0.6-18.1 2.1-30.9 0.7-6.4 1.7-13.3 2.9-20.6 1.3-7.3 2.8-14.9 4.8-22.8 1.9-7.8 4.2-15.9 6.9-23.9 2.7-8 5.8-16.1 9.4-24 3.6-7.9 7.5-15.5 11.9-22.9 4.3-7.3 9.1-14.2 14.1-20.6 5-6.4 10.3-12.3 15.6-17.6 5.3-5.3 10.8-9.9 16-13.9 5.2-4 10.3-7.3 14.8-10.2 2.3-1.3 4.5-2.7 6.5-3.8 2.1-1.1 3.9-2.2 5.7-3 1.7-0.9 3.3-1.6 4.7-2.3 1.4-0.6 2.5-1.1 3.5-1.6 1.7-0.7 2.7-1.2 2.9-1.3-0.2 0.1-1.3 0.4-3 1-1 0.3-2.2 0.7-3.7 1.2-1.4 0.5-3.1 1.1-4.9 1.8-1.8 0.7-3.8 1.5-6 2.4-2.2 0.9-4.5 2-7 3.1-4.9 2.4-10.4 5.2-16.2 8.8-5.8 3.5-11.8 7.7-17.9 12.6-6.1 4.8-12.2 10.4-18.2 16.5-5.9 6.1-11.7 12.9-17.1 20.1-5.4 7.2-10.4 14.9-15.1 22.8-4.6 7.9-8.8 16.1-12.6 24.3-3.8 8.2-7.1 16.5-10 24.5-2.9 8.1-5.4 16-7.6 23.6-2.2 7.6-3.9 14.8-5.4 21.6-3 13.5-4.7 24.9-5.7 33-0.5 4-0.8 7.3-1 9.5 0 0.4-0.1 0.8-0.1 1.2h-58.3c0-166.5 152.1-301.4 339.8-301.4s339.8 134.9 339.8 301.4H246.8z" fill="#ff585f" data-fill-palette-color="accent"></path></g></g><g fill="#ff585f" data-fill-palette-color="accent"><g fill="#ff585f" data-fill-palette-color="accent"><path d="M892.5 764.2H104.6c-12.9 0-23.3-10.4-23.3-23.3 0-12.9 10.4-23.3 23.3-23.3h787.9c12.9 0 23.3 10.4 23.3 23.3C915.8 753.8 905.4 764.2 892.5 764.2z" fill="#ff585f" data-fill-palette-color="accent"></path></g></g><g fill="#ff585f" data-fill-palette-color="accent"><g fill="#ff585f" data-fill-palette-color="accent"><circle cx="496.3" cy="357.3" r="33" fill="#ff585f" data-fill-palette-color="accent"></circle></g></g></g><g fill="#ff585f" data-fill-palette-color="accent"><path d="M888.4 808.2h-459c-8.3 0-15-6.7-15-15s6.7-15 15-15h459c8.3 0 15 6.7 15 15S896.7 808.2 888.4 808.2z" fill="#ff585f" data-fill-palette-color="accent"></path></g><path d="M664.9 277.6c7 19.4 5.2 36-3 47.2-7.4 11.3-21.2 17.2-20.5 17.3-0.8-0.1 5.1-6.9 4.7-19.1 0.3-12.1-5.8-29.6-12.8-49-7-19.4-5.2-36 3-47.2 7.4-11.3 21.2-17.2 20.5-17.3 0.8 0.1-5.1 6.9-4.7 19.1C651.8 240.7 657.9 258.2 664.9 277.6z" fill="#ff585f" data-fill-palette-color="accent"></path><path d="M670.3 343.8c-7.1 19.3-5.4 35.9 2.7 47.2 7.4 11.3 21.2 17.3 20.4 17.4 0.8-0.1-5.1-7-4.6-19.2-0.2-12.1 5.9-29.6 13.1-49 7.1-19.3 5.4-35.9-2.7-47.2-7.4-11.3-21.2-17.3-20.4-17.4-0.8 0.1 5.1 7 4.6 19.2C683.6 306.9 677.4 324.4 670.3 343.8z" fill="#ff585f" data-fill-palette-color="accent"></path><path d="M143.2 541.2c8.7 17.4 8.8 33.2 2.3 44.7-5.8 11.4-18.1 18.5-17.4 18.5-0.7 0 4.1-7.1 2.3-18.5-1-11.4-8.7-27.2-17.4-44.7s-8.8-33.2-2.3-44.7c5.8-11.4 18.1-18.5 17.4-18.5 0.7 0-4.1 7.1-2.3 18.5C126.9 508 134.5 523.8 143.2 541.2z" fill="#ff585f" data-fill-palette-color="accent"></path></g></svg></g></svg></g><g></g></svg></g></svg></g></svg></g></svg></g><defs></defs></svg><rect width="320" height="360" fill="none" stroke="none" visibility="hidden"></rect></g></svg></g></svg>